<svg id="Layer_1" data-name="Layer 1" xmlns="http://www.w3.org/2000/svg" viewBox="0 0 20 19.99"><defs><style>.cls-1{fill:#fff;}</style></defs><path class="cls-1" d="M20.71,7.63a10.25,10.25,0,0,0-1.82-2.85L17.67,7.63Z" transform="translate(-1.5 -1.5)"/><path class="cls-1" d="M11.5,1.5A10.09,10.09,0,0,0,9,1.83v5.8h8.1l1.41-3.28A10,10,0,0,0,11.5,1.5Z" transform="translate(-1.5 -1.5)"/><path class="cls-1" d="M18.15,19A9.91,9.91,0,0,0,20.92,8.18H17.43l-2.79,6.49Z" transform="translate(-1.5 -1.5)"/><path class="cls-1" d="M14.4,15.24l-2.69,6.25a9.93,9.93,0,0,0,6-2.19Z" transform="translate(-1.5 -1.5)"/><path class="cls-1" d="M8.42,8.18H2.08A9.86,9.86,0,0,0,1.5,11.5,10,10,0,0,0,8.42,21Z" transform="translate(-1.5 -1.5)"/><path class="cls-1" d="M5.08,3.86a9.89,9.89,0,0,0-2.8,3.77H8.17Z" transform="translate(-1.5 -1.5)"/><path class="cls-1" d="M8.42,7.07V2A9.91,9.91,0,0,0,5.5,3.51Z" transform="translate(-1.5 -1.5)"/><polygon class="cls-1" points="12.75 12.69 15.33 6.68 7.83 6.68 12.75 12.69"/><path class="cls-1" d="M9,8.61V21.16a10.15,10.15,0,0,0,2.14.32L14,14.76Z" transform="translate(-1.5 -1.5)"/></svg>